C:\GBW_MyPrograms\KinderuniversiteitApp\Resultaten\TymenKool\Model1_v2.mot
version=1
nRows=6
nColumns=31
inDegrees=yes
endheader
                time	         pelvis_tilt	           pelvis_tx	           pelvis_ty	       hip_flexion_r	        knee_angle_r	       ankle_angle_r	       hip_flexion_l	        knee_angle_l	       ankle_angle_l	    lumbar_extension	          arm_flex_r	          arm_flex_l	hamstrings_r/activation	bifemsh_r/activation	glut_max_r/activation	iliopsoas_r/activation	rect_fem_r/activation	  vasti_r/activation	gastroc_r/activation	 soleus_r/activation	tib_ant_r/activation	hamstrings_l/activation	bifemsh_l/activation	glut_max_l/activation	iliopsoas_l/activation	rect_fem_l/activation	  vasti_l/activation	gastroc_l/activation	 soleus_l/activation	tib_ant_l/activation	
          1.74569024	         -1.97948512	          2.28583068	          1.04524686	         36.16143400	        -19.82188008	        -11.13711267	        -18.40880989	        -15.62492833	         -3.44568375	         -4.30886998	         -0.78460735	         -0.78459579	          0.56462707	          0.70476837	          0.41008861	          0.73649209	          0.55702385	          0.29874556	          0.35377974	          0.09943519	          0.88549804	          0.26586516	          0.54267487	          0.54867943	          0.80301787	          0.86812644	          0.77869397	          0.84057294	          0.93799973	          0.11729664	
          1.76314715	         -2.23680046	          2.32459645	          1.04559721	         36.36970284	        -23.45101487	        -10.54650836	        -19.64741457	        -15.09004205	        -10.95543426	         -2.74866722	         -3.10474906	         -3.10473721	          0.65787416	          0.65020738	          0.50600354	          0.61234240	          0.54079506	          0.44577189	          0.39346071	          0.10273507	          0.78272369	          0.30049810	          0.50775016	          0.53504209	          0.68701230	          0.82622277	          0.81455638	          0.74359581	          0.88179802	          0.09752420	
          1.78060405	         -2.49779186	          2.36457419	          1.04710623	         36.18913721	        -26.79584017	         -8.24093463	        -21.24252362	        -13.50282985	        -19.92326455	         -1.06942152	         -5.56008545	         -5.56007471	          0.57785954	          0.58963569	          0.74177355	          0.51330060	          0.57406941	          0.72223757	          0.37412839	          0.08697132	          0.83825703	          0.44153695	          0.56395557	          0.59709675	          0.68977135	          0.73328271	          0.69745750	          0.65055865	          0.72885166	          0.40181612	
          1.79806095	         -2.74113021	          2.40278226	          1.04946691	         35.93078518	        -29.96934334	         -5.00989981	        -22.51476949	        -12.01488329	        -25.08102005	          0.40808271	         -7.75922905	         -7.75921770	          0.49494277	          0.53296738	          0.72708065	          0.45957489	          0.63340122	          0.85234020	          0.37061893	          0.07470423	          0.79172556	          0.50493032	          0.59677753	          0.56774847	          0.75517744	          0.68019982	          0.63994637	          0.65743872	          0.77785529	          0.32215699	
          1.81551785	         -2.90853832	          2.43860740	          1.05289356	         35.19121168	        -32.18099763	         -2.17125854	        -23.05675611	        -11.45030200	        -26.47372161	          1.56409095	         -9.60774245	         -9.60773278	          0.41800519	          0.48093606	          0.79854750	          0.40555535	          0.67503995	          0.90726310	          0.37163928	          0.06780285	          0.71190837	          0.55554146	          0.63443546	          0.56971131	          0.79228290	          0.62130092	          0.55510929	          0.60129491	          0.64680609	          0.53384273	
          1.83297476	         -3.02717415	          2.47218018	          1.05747917	         33.91776661	        -33.29832232	          0.10413617	        -22.63238121	        -12.39254938	        -24.92233042	          2.45523108	        -11.12467466	        -11.12466406	          0.36614351	          0.43439363	          0.79917509	          0.35531906	          0.69739495	          0.92081885	          0.37683029	          0.08708068	          0.60243111	          0.58697479	          0.66594105	          0.53519108	          0.80518552	          0.58360967	          0.48673222	          0.57675096	          0.57047265	          0.66820204	
